<svg width="65" height="64" viewBox="0 0 65 64" fill="none" xmlns="http://www.w3.org/2000/svg">
<path id="clear_day" d="M29.0725 12.3825V0H35.3162V12.3825H29.0725ZM48.3761 20.3857L43.9865 15.9961L52.7442 7.20035L57.1575 11.6044L48.3761 20.3857ZM52.0061 35.3162V29.0725H64.3886V35.3162H52.0061ZM29.0725 64.3886V52.0061H35.3162V64.3886H29.0725ZM15.9653 20.3713L7.2476 11.6845L11.6845 7.31128L20.4257 16.0525L15.9653 20.3713ZM52.7679 57.1944L43.9865 48.3525L48.3053 44.0337L57.1646 52.5697L52.7679 57.1944ZM0 35.3162V29.0725H12.3825V35.3162H0ZM11.7317 57.141L7.27118 52.7042L15.9817 43.9937L18.2392 46.1515L20.5366 48.3361L11.7317 57.141ZM32.1818 48.9274C27.5302 48.9274 23.5806 47.2994 20.3328 44.0432C17.0851 40.7871 15.4612 36.8333 15.4612 32.1818C15.4612 27.5302 17.0893 23.5806 20.3454 20.3328C23.6015 17.0851 27.5553 15.4612 32.2069 15.4612C36.8584 15.4612 40.8081 17.0893 44.0558 20.3454C47.3035 23.6015 48.9274 27.5553 48.9274 32.2069C48.9274 36.8584 47.2994 40.8081 44.0432 44.0558C40.7871 47.3035 36.8333 48.9274 32.1818 48.9274ZM32.1943 42.657C35.105 42.657 37.5809 41.6409 39.622 39.6087C41.6632 37.5764 42.6837 35.105 42.6837 32.1943C42.6837 29.2837 41.6632 26.8078 39.622 24.7666C37.5809 22.7255 35.105 21.7049 32.1943 21.7049C29.2837 21.7049 26.8122 22.7255 24.78 24.7666C22.7477 26.8078 21.7316 29.2837 21.7316 32.1943C21.7316 35.105 22.7477 37.5764 24.78 39.6087C26.8122 41.6409 29.2837 42.657 32.1943 42.657Z" fill="#C60A07"/>
</svg>
