<svg width="77" height="77" viewBox="0 0 77 77" fill="none" xmlns="http://www.w3.org/2000/svg">
<g id="list">
<mask id="mask0_158_103" style="mask-type:alpha" maskUnits="userSpaceOnUse" x="0" y="0" width="77" height="77">
<rect id="Bounding box" width="77" height="77" fill="#D9D9D9"/>
</mask>
<g mask="url(#mask0_158_103)">
<path id="list_2" d="M23.0384 26.944V19.8438H68.6747V26.944H23.0384ZM23.0384 42.0349V34.9649H68.6747V42.0349H23.0384ZM23.0384 57.156V50.0557H68.6747V57.156H23.0384ZM11.8341 26.944C10.8642 26.944 10.0419 26.598 9.36736 25.9061C8.69281 25.2141 8.35553 24.3709 8.35553 23.3767C8.35553 22.391 8.69281 21.5558 9.36736 20.871C10.0419 20.1862 10.8731 19.8438 11.8608 19.8438C12.8485 19.8438 13.6896 20.188 14.384 20.8765C15.0784 21.565 15.4256 22.4181 15.4256 23.4358C15.4256 24.4011 15.0762 25.2271 14.3773 25.9138C13.6785 26.6006 12.8308 26.944 11.8341 26.944ZM11.8341 42.0349C10.8642 42.0349 10.0419 41.6838 9.36736 40.9817C8.69281 40.2796 8.35553 39.4246 8.35553 38.4167C8.35553 37.44 8.69281 36.6206 9.36736 35.9583C10.0419 35.296 10.8731 34.9649 11.8608 34.9649C12.8485 34.9649 13.6896 35.2982 14.384 35.965C15.0784 36.6317 15.4256 37.4578 15.4256 38.4434C15.4256 39.4335 15.0762 40.2796 14.3773 40.9817C13.6785 41.6838 12.8308 42.0349 11.8341 42.0349ZM11.8341 57.1106C10.8642 57.1106 10.0419 56.7647 9.36736 56.0727C8.69281 55.3808 8.35553 54.5376 8.35553 53.5434C8.35553 52.5577 8.69281 51.7224 9.36736 51.0377C10.0419 50.3528 10.8731 50.0104 11.8608 50.0104C12.8485 50.0104 13.6896 50.3547 14.384 51.0431C15.0784 51.7316 15.4256 52.5847 15.4256 53.6025C15.4256 54.5678 15.0762 55.3938 14.3773 56.0805C13.6785 56.7673 12.8308 57.1106 11.8341 57.1106Z" fill="#C60A07"/>
</g>
</g>
</svg>
